<svg width="541" height="91" viewBox="0 0 541 91" fill="none" xmlns="http://www.w3.org/2000/svg">
<circle cx="450" cy="45" r="23.5" stroke="white" stroke-width="15"/>
<path fill-rule="evenodd" clip-rule="evenodd" d="M379 0C366.714 11.1591 359 27.2622 359 45.167C359 63.0717 366.714 79.1748 379 90.3339V66.0452C375.803 59.7795 374 52.6838 374 45.167C374 37.6502 375.803 30.5544 379 24.2887V0Z" fill="white"/>
<path fill-rule="evenodd" clip-rule="evenodd" d="M399 2C386.772 12.2726 379 27.6771 379 44.8969C379 62.1167 386.772 77.5212 399 87.7938V64.5345C395.812 58.7028 394 52.0115 394 44.8969C394 37.7823 395.812 31.091 399 25.2593V2Z" fill="white"/>
<path fill-rule="evenodd" clip-rule="evenodd" d="M419 4C406.84 13.3213 399 27.9951 399 44.5002C399 61.0053 406.84 75.6791 419 85.0004V62.8143C415.823 57.4488 414 51.1875 414 44.5002C414 37.813 415.823 31.5516 419 26.1861V4Z" fill="white"/>
<path fill-rule="evenodd" clip-rule="evenodd" d="M521 0C533.286 11.1591 541 27.2622 541 45.167C541 63.0717 533.286 79.1748 521 90.3339V66.0452C524.197 59.7795 526 52.6838 526 45.167C526 37.6502 524.197 30.5544 521 24.2887V0Z" fill="white"/>
<path fill-rule="evenodd" clip-rule="evenodd" d="M501 2C513.228 12.2726 521 27.6771 521 44.8969C521 62.1167 513.228 77.5212 501 87.7938V64.5345C504.188 58.7028 506 52.0115 506 44.8969C506 37.7823 504.188 31.091 501 25.2593V2Z" fill="white"/>
<path fill-rule="evenodd" clip-rule="evenodd" d="M481 4C493.16 13.3213 501 27.9951 501 44.5002C501 61.0053 493.16 75.6791 481 85.0004V62.8143C484.177 57.4488 486 51.1875 486 44.5002C486 37.813 484.177 31.5516 481 26.1861V4Z" fill="white"/>
<path d="M40.375 65.1875H45.75V81.9062H40.7188V70H6.28125V24.3125H11.5938V65.1875H35.0625V24.3125H40.375V65.1875ZM57.5625 35.75V57.4688L57.3438 63.1562L57.25 64.9375L75.7812 35.75H82.25V70H77.4062V49.0625L77.5 44.9375L77.6562 40.875L59.1562 70H52.6875V35.75H57.5625ZM129.938 52.8438C129.938 58.0312 128.458 62.1667 125.5 65.25C122.562 68.3125 118.448 70.0625 113.156 70.5V85.375H108.031V70.5C102.865 70.1042 98.7812 68.3333 95.7812 65.1875C92.7812 62.0417 91.2812 57.9271 91.2812 52.8438C91.2812 47.6562 92.7708 43.5312 95.75 40.4688C98.75 37.4062 102.906 35.6667 108.219 35.25V21.375H113.156V35.25C118.385 35.7292 122.49 37.5312 125.469 40.6562C128.448 43.7812 129.938 47.8438 129.938 52.8438ZM96.7188 52.8438C96.7188 56.8438 97.6354 59.9792 99.4688 62.25C101.302 64.5208 104.219 65.8438 108.219 66.2188V39.5938C104.365 39.9479 101.479 41.2083 99.5625 43.375C97.6667 45.5208 96.7188 48.6771 96.7188 52.8438ZM124.562 52.8438C124.562 44.8646 120.76 40.4688 113.156 39.6562V66.2188C117.115 65.8229 120 64.4896 121.812 62.2188C123.646 59.9479 124.562 56.8229 124.562 52.8438ZM154.938 70.625C152.708 70.625 150.667 70.2188 148.812 69.4062C146.979 68.5729 145.438 67.3021 144.188 65.5938H143.812C144.062 67.5938 144.188 69.4896 144.188 71.2812V85.375H139V35.75H143.219L143.938 40.4375H144.188C145.521 38.5625 147.073 37.2083 148.844 36.375C150.615 35.5417 152.646 35.125 154.938 35.125C159.479 35.125 162.979 36.6771 165.438 39.7812C167.917 42.8854 169.156 47.2396 169.156 52.8438C169.156 58.4688 167.896 62.8438 165.375 65.9688C162.875 69.0729 159.396 70.625 154.938 70.625ZM154.188 39.5312C150.688 39.5312 148.156 40.5 146.594 42.4375C145.031 44.375 144.229 47.4583 144.188 51.6875V52.8438C144.188 57.6562 144.99 61.1042 146.594 63.1875C148.198 65.25 150.771 66.2812 154.312 66.2812C157.271 66.2812 159.583 65.0833 161.25 62.6875C162.938 60.2917 163.781 56.9896 163.781 52.7812C163.781 48.5104 162.938 45.2396 161.25 42.9688C159.583 40.6771 157.229 39.5312 154.188 39.5312ZM206.156 47.0938C206.156 54.9896 204.906 60.8854 202.406 64.7812C199.927 68.6771 196.125 70.625 191 70.625C186.083 70.625 182.344 68.6354 179.781 64.6562C177.219 60.6562 175.938 54.8021 175.938 47.0938C175.938 39.1354 177.177 33.2292 179.656 29.375C182.135 25.5208 185.917 23.5938 191 23.5938C195.958 23.5938 199.719 25.6042 202.281 29.625C204.865 33.6458 206.156 39.4688 206.156 47.0938ZM181.188 47.0938C181.188 53.7396 181.969 58.5833 183.531 61.625C185.094 64.6458 187.583 66.1562 191 66.1562C194.458 66.1562 196.958 64.625 198.5 61.5625C200.062 58.4792 200.844 53.6562 200.844 47.0938C200.844 40.5312 200.062 35.7292 198.5 32.6875C196.958 29.625 194.458 28.0938 191 28.0938C187.583 28.0938 185.094 29.6042 183.531 32.625C181.969 35.625 181.188 40.4479 181.188 47.0938ZM235.5 40.1875H220.062V70H214.875V35.75H235.5V40.1875ZM258.25 70.625C256.021 70.625 253.979 70.2188 252.125 69.4062C250.292 68.5729 248.75 67.3021 247.5 65.5938H247.125C247.375 67.5938 247.5 69.4896 247.5 71.2812V85.375H242.312V35.75H246.531L247.25 40.4375H247.5C248.833 38.5625 250.385 37.2083 252.156 36.375C253.927 35.5417 255.958 35.125 258.25 35.125C262.792 35.125 266.292 36.6771 268.75 39.7812C271.229 42.8854 272.469 47.2396 272.469 52.8438C272.469 58.4688 271.208 62.8438 268.688 65.9688C266.188 69.0729 262.708 70.625 258.25 70.625ZM257.5 39.5312C254 39.5312 251.469 40.5 249.906 42.4375C248.344 44.375 247.542 47.4583 247.5 51.6875V52.8438C247.5 57.6562 248.302 61.1042 249.906 63.1875C251.51 65.25 254.083 66.2812 257.625 66.2812C260.583 66.2812 262.896 65.0833 264.562 62.6875C266.25 60.2917 267.094 56.9896 267.094 52.7812C267.094 48.5104 266.25 45.2396 264.562 42.9688C262.896 40.6771 260.542 39.5312 257.5 39.5312ZM302.625 70L301.594 65.125H301.344C299.635 67.2708 297.927 68.7292 296.219 69.5C294.531 70.25 292.417 70.625 289.875 70.625C286.479 70.625 283.812 69.75 281.875 68C279.958 66.25 279 63.7604 279 60.5312C279 53.6146 284.531 49.9896 295.594 49.6562L301.406 49.4688V47.3438C301.406 44.6562 300.823 42.6771 299.656 41.4062C298.51 40.1146 296.667 39.4688 294.125 39.4688C291.271 39.4688 288.042 40.3438 284.438 42.0938L282.844 38.125C284.531 37.2083 286.375 36.4896 288.375 35.9688C290.396 35.4479 292.417 35.1875 294.438 35.1875C298.521 35.1875 301.542 36.0938 303.5 37.9062C305.479 39.7188 306.469 42.625 306.469 46.625V70H302.625ZM290.906 66.3438C294.135 66.3438 296.667 65.4583 298.5 63.6875C300.354 61.9167 301.281 59.4375 301.281 56.25V53.1562L296.094 53.375C291.969 53.5208 288.99 54.1667 287.156 55.3125C285.344 56.4375 284.438 58.1979 284.438 60.5938C284.438 62.4688 285 63.8958 286.125 64.875C287.271 65.8542 288.865 66.3438 290.906 66.3438ZM346.938 81.8438H341.906V70H317.969V81.8438H312.969V65.5312H315.656C318.448 61.7396 320.635 57.2917 322.219 52.1875C323.802 47.0833 324.625 41.6042 324.688 35.75H342.031V65.5312H346.938V81.8438ZM337.031 65.5312V39.8438H329.344C329.073 44.4688 328.177 49.1562 326.656 53.9062C325.156 58.6354 323.281 62.5104 321.031 65.5312H337.031Z" fill="white"/>
<path d="M172.75 76.4062H209.344V79.5938H172.75V76.4062Z" fill="white"/>
</svg>
