<svg width="32" height="14" viewBox="0 0 32 14" fill="none" xmlns="http://www.w3.org/2000/svg">
<g clip-path="url(#clip0)">
<path fill-rule="evenodd" clip-rule="evenodd" d="M3.51634 0.853056C3.51634 0.0639651 2.63722 -0.316035 2.17656 0.307602C0.763707 2.23534 -0.000976562 4.58786 -0.000976562 7.00669C-0.000976563 9.42552 0.763707 11.778 2.17656 13.7058C2.63722 14.3403 3.51634 13.9603 3.51634 13.164V11.0276C3.51482 10.8858 3.483 10.7461 3.42315 10.6185C2.90571 9.4935 2.63722 8.26338 2.63722 7.0176C2.63722 5.77182 2.90571 4.5417 3.42315 3.41669C3.48453 3.28578 3.51639 3.14218 3.51634 2.99669V0.853056Z" fill="#F27A24"/>
<path fill-rule="evenodd" clip-rule="evenodd" d="M7.03316 1.11632C7.03316 0.343596 6.18393 -0.0454948 5.71272 0.554505C4.29191 2.36776 3.5166 4.63071 3.5166 6.9645C3.5166 9.2983 4.29191 11.5613 5.71272 13.3745C6.18393 13.9745 7.03316 13.5854 7.03316 12.8127V10.7672C7.03178 10.6146 6.99564 10.4645 6.92766 10.3291C6.41925 9.28574 6.15441 8.13371 6.15441 6.96541C6.15441 5.79712 6.41925 4.64509 6.92766 3.60178C6.99537 3.46687 7.03151 3.3174 7.03316 3.16541V1.11632Z" fill="#F27A24"/>
<path fill-rule="evenodd" clip-rule="evenodd" d="M10.5489 1.37132C10.5489 0.618592 9.73128 0.22041 9.25128 0.787683C7.82135 2.47793 7.0332 4.64738 7.0332 6.89314C7.0332 9.1389 7.82135 11.3083 9.25128 12.9986C9.73128 13.5659 10.5489 13.1659 10.5489 12.415V10.4731C10.5471 10.3098 10.5067 10.1493 10.4311 10.0059C9.93123 9.04976 9.66951 7.98 9.66951 6.89314C9.66951 5.80627 9.93123 4.73651 10.4311 3.78041C10.5064 3.63751 10.5469 3.47772 10.5489 3.31496V1.37132Z" fill="#F27A24"/>
<path fill-rule="evenodd" clip-rule="evenodd" d="M28.4834 0.853056C28.4834 0.0639651 29.3625 -0.316035 29.8232 0.307601C31.236 2.23534 32.0007 4.58786 32.0007 7.00669C32.0007 9.42552 31.236 11.778 29.8232 13.7058C29.3608 14.3349 28.4834 13.9549 28.4834 13.1603V11.0276C28.4841 10.884 28.516 10.7423 28.5766 10.6131C29.094 9.48804 29.3625 8.25792 29.3625 7.01215C29.3625 5.76637 29.094 4.53625 28.5766 3.41124C28.516 3.28199 28.4841 3.14034 28.4834 2.99669V0.853056Z" fill="#F27A24"/>
<path fill-rule="evenodd" clip-rule="evenodd" d="M24.9668 1.11632C24.9668 0.343596 25.8178 -0.0454948 26.2872 0.554505C27.708 2.36776 28.4833 4.63071 28.4833 6.9645C28.4833 9.2983 27.708 11.5613 26.2872 13.3745C25.8178 13.9745 24.9668 13.5854 24.9668 12.8127V10.7672C24.9682 10.6146 25.0043 10.4645 25.0723 10.3291C25.5807 9.28574 25.8455 8.13371 25.8455 6.96541C25.8455 5.79712 25.5807 4.64509 25.0723 3.60178C25.0046 3.46687 24.9684 3.3174 24.9668 3.16541V1.11632Z" fill="#F27A24"/>
<path fill-rule="evenodd" clip-rule="evenodd" d="M21.4502 1.37132C21.4502 0.618592 22.2678 0.22041 22.7478 0.787683C24.1777 2.47793 24.9659 4.64738 24.9659 6.89314C24.9659 9.1389 24.1777 11.3083 22.7478 12.9986C22.2678 13.5659 21.4502 13.1677 21.4502 12.415V10.4731C21.4517 10.3095 21.4928 10.1489 21.5698 10.0059C22.0684 9.04936 22.3294 7.97976 22.3294 6.89314C22.3294 5.80652 22.0684 4.73691 21.5698 3.78041C21.493 3.63799 21.4519 3.47799 21.4502 3.31496V1.37132Z" fill="#F27A24"/>
<path fill-rule="evenodd" clip-rule="evenodd" d="M16.0004 1.08984C12.9885 1.08984 10.5498 3.68439 10.5498 6.88439C10.5498 10.0844 12.9902 12.6789 16.0004 12.6789C19.0105 12.6789 21.4509 10.0844 21.4509 6.88439C21.4509 3.68439 19.0105 1.08984 16.0004 1.08984ZM16.0232 9.94439C14.4215 9.94439 13.2364 8.58985 13.1661 6.99166C13.0957 5.39348 14.5287 4.03712 16.0232 4.03712C17.6232 4.03712 18.8083 5.39166 18.8786 6.99166C18.9489 8.59166 17.516 9.94439 16.0232 9.94439Z" fill="#F27A24"/>
</g>
<defs>
<clipPath id="clip0">
<rect width="32" height="14" fill="white"/>
</clipPath>
</defs>
</svg>
