<svg width="32" height="32" viewBox="0 0 32 32" fill="none" xmlns="http://www.w3.org/2000/svg">
<path fill-rule="evenodd" clip-rule="evenodd" d="M4 1.95475C4 0.154816 3.00024 -0.711974 2.47636 0.710558C0.869623 5.10779 0 10.4739 0 15.9914C0 21.5088 0.869623 26.8749 2.47636 31.2722C3.00024 32.7196 4 31.8528 4 30.0363V25.1632C3.99827 24.8397 3.96208 24.5211 3.89403 24.23C3.30557 21.6638 3.00025 18.8579 3.00025 16.0162C3.00025 13.1746 3.30557 10.3687 3.89403 7.80248C3.96383 7.50387 4.00006 7.1763 4 6.84445V1.95475Z" fill="#F27A24"/>
<path fill-rule="evenodd" clip-rule="evenodd" d="M7 1.9125C7 0.183232 6.27551 -0.687506 5.87352 0.65522C4.66142 4.71306 4 9.77727 4 15C4 20.2227 4.66142 25.2869 5.87352 29.3448C6.27551 30.6875 7 29.8168 7 28.0875V23.51C6.99883 23.1685 6.96799 22.8326 6.91 22.5294C6.47627 20.1946 6.25034 17.6165 6.25034 15.002C6.25034 12.3875 6.47627 9.80944 6.91 7.47464C6.96777 7.17272 6.99859 6.83824 7 6.49811V1.9125Z" fill="#F27A24"/>
<path fill-rule="evenodd" clip-rule="evenodd" d="M11 3.87106C11 2.2176 10.0698 1.34294 9.52366 2.58903C7.89673 6.30188 7 11.0673 7 16.0004C7 20.9335 7.89673 25.699 9.52366 29.4118C10.0698 30.6579 11 29.7793 11 28.1298V23.8644C10.998 23.5055 10.952 23.1531 10.866 22.8379C10.2973 20.7377 9.9995 18.3879 9.9995 16.0004C9.9995 13.613 10.2973 11.2631 10.866 9.16293C10.9517 8.84904 10.9977 8.49803 11 8.1405V3.87106Z" fill="#F27A24"/>
<path fill-rule="evenodd" clip-rule="evenodd" d="M28 1.95529C28 0.154859 28.9998 -0.71217 29.5236 0.710753C31.1304 5.10919 32 10.4768 32 15.9958C32 21.5147 31.1304 26.8824 29.5236 31.2808C28.9978 32.7162 28 31.8491 28 30.0363V25.1701C28.0008 24.8424 28.037 24.5192 28.106 24.2243C28.6944 21.6574 28.9998 18.8507 28.9998 16.0082C28.9998 13.1658 28.6944 10.3591 28.106 7.79218C28.037 7.49727 28.0008 7.17408 28 6.84633V1.95529Z" fill="#F27A24"/>
<path fill-rule="evenodd" clip-rule="evenodd" d="M25 1.9125C25 0.183232 25.726 -0.687506 26.1265 0.65522C27.3386 4.71306 28 9.77727 28 15C28 20.2227 27.3386 25.2869 26.1265 29.3448C25.726 30.6875 25 29.8168 25 28.0875V23.51C25.0012 23.1685 25.032 22.8326 25.09 22.5294C25.5237 20.1946 25.7497 17.6165 25.7497 15.002C25.7497 12.3875 25.5237 9.80944 25.09 7.47464C25.0322 7.17272 25.0014 6.83824 25 6.49811V1.9125Z" fill="#F27A24"/>
<path fill-rule="evenodd" clip-rule="evenodd" d="M21 3.871C21 2.21759 21.9302 1.34296 22.4763 2.58901C24.1033 6.30174 25 11.0671 25 16C25 20.9329 24.1033 25.6983 22.4763 29.411C21.9302 30.657 21 29.7824 21 28.129V23.8637C21.0017 23.5042 21.0485 23.1514 21.136 22.8373C21.7033 20.7363 22.0003 18.3868 22.0003 16C22.0003 13.6132 21.7033 11.2637 21.136 9.16271C21.0487 8.84987 21.002 8.49842 21 8.14031V3.871Z" fill="#F27A24"/>
<path fill-rule="evenodd" clip-rule="evenodd" d="M16 3C13.2371 3 11 8.82083 11 16C11 23.1792 13.2387 29 16 29C18.7613 29 21 23.1792 21 16C21 8.82083 18.7613 3 16 3ZM16.021 22.8651C14.5516 22.8651 13.4645 19.8262 13.4 16.2407C13.3355 12.6552 14.65 9.61218 16.021 9.61218C17.4887 9.61218 18.5758 12.6511 18.6403 16.2407C18.7048 19.8302 17.3903 22.8651 16.021 22.8651Z" fill="#F27A24"/>
</svg>
