<svg width="242" height="131" viewBox="0 0 242 131" fill="none" xmlns="http://www.w3.org/2000/svg">
<path d="M121 88.5C133.979 88.5 144.5 77.9787 144.5 65C144.5 52.0213 133.979 41.5 121 41.5C108.021 41.5 97.5 52.0213 97.5 65C97.5 77.9787 108.021 88.5 121 88.5Z" stroke="#F27A24" stroke-width="15"/>
<path fill-rule="evenodd" clip-rule="evenodd" d="M50 31.294C50 26.9543 45.0062 24.8609 42.3823 28.3176C34.6116 38.5547 30 51.3212 30 65.1649C30 79.0086 34.6116 91.7752 42.3823 102.012C45.0062 105.469 50 103.375 50 99.0361V87.2451C50 86.4551 49.8083 85.6785 49.4679 84.9656C46.6036 78.9685 45 72.254 45 65.1649C45 58.0758 46.6036 51.3613 49.4679 45.3643C49.8083 44.6514 50 43.8748 50 43.0848V31.294Z" fill="#F27A24"/>
<path fill-rule="evenodd" clip-rule="evenodd" d="M70 32.7307C70 28.4821 65.1653 26.3417 62.4887 29.641C54.6794 39.2671 50 51.5355 50 64.8968C50 78.2581 54.6794 90.5265 62.4887 100.153C65.1653 103.452 70 101.311 70 97.063V85.8118C70 84.9737 69.7837 84.1518 69.4049 83.4041C66.5876 77.8444 65 71.556 65 64.8968C65 58.2376 66.5876 51.9492 69.4049 46.3895C69.7837 45.6419 70 44.82 70 43.9818V32.7307Z" fill="#F27A24"/>
<path fill-rule="evenodd" clip-rule="evenodd" d="M90 34.1347C90 29.9902 85.3476 27.8007 82.6172 30.9187C74.7612 39.8902 70 51.64 70 64.5019C70 77.3638 74.7612 89.1136 82.6172 98.0849C85.3476 101.203 90 99.0139 90 94.8689V84.1852C90 83.2889 89.752 82.413 89.3251 81.6249C86.5665 76.5326 85 70.7002 85 64.5019C85 58.3036 86.5665 52.4711 89.3251 47.3789C89.752 46.5908 90 45.7149 90 44.8186V34.1347Z" fill="#F27A24"/>
<path fill-rule="evenodd" clip-rule="evenodd" d="M192 31.294C192 26.9543 196.994 24.8609 199.618 28.3176C207.388 38.5547 212 51.3212 212 65.1649C212 79.0086 207.388 91.7752 199.618 102.012C196.994 105.469 192 103.375 192 99.0361V87.2451C192 86.4551 192.192 85.6785 192.532 84.9656C195.396 78.9685 197 72.254 197 65.1649C197 58.0758 195.396 51.3613 192.532 45.3643C192.192 44.6514 192 43.8748 192 43.0848V31.294Z" fill="#F27A24"/>
<path fill-rule="evenodd" clip-rule="evenodd" d="M172 32.7307C172 28.4821 176.835 26.3417 179.511 29.641C187.321 39.2671 192 51.5355 192 64.8968C192 78.2581 187.321 90.5265 179.511 100.153C176.835 103.452 172 101.311 172 97.063V85.8118C172 84.9737 172.216 84.1518 172.595 83.4041C175.412 77.8444 177 71.556 177 64.8968C177 58.2376 175.412 51.9492 172.595 46.3895C172.216 45.6419 172 44.82 172 43.9818V32.7307Z" fill="#F27A24"/>
<path fill-rule="evenodd" clip-rule="evenodd" d="M152 34.1347C152 29.9902 156.652 27.8007 159.383 30.9187C167.239 39.8902 172 51.64 172 64.5019C172 77.3638 167.239 89.1136 159.383 98.0849C156.652 101.203 152 99.0139 152 94.8689V84.1852C152 83.2889 152.248 82.413 152.675 81.6249C155.434 76.5326 157 70.7002 157 64.5019C157 58.3036 155.434 52.4711 152.675 47.3789C152.248 46.5908 152 45.7149 152 44.8186V34.1347Z" fill="#F27A24"/>
</svg>
