<svg width="32" height="32" viewBox="0 0 32 32" fill="none" xmlns="http://www.w3.org/2000/svg">
<rect width="32" height="32" fill="#F27A24"/>
<path fill-rule="evenodd" clip-rule="evenodd" d="M7.52709 11.6082C7.52709 11.0446 6.89523 10.7731 6.56413 11.2186C5.54864 12.5956 4.99902 14.2759 4.99902 16.0037C4.99902 17.7314 5.54864 19.4117 6.56413 20.7887C6.89523 21.242 7.52709 20.9705 7.52709 20.4017V18.8757C7.526 18.7745 7.50313 18.6747 7.46011 18.5835C7.0882 17.78 6.89523 16.9013 6.89523 16.0115C6.89523 15.1216 7.0882 14.243 7.46011 13.4394C7.50423 13.3459 7.52713 13.2433 7.52709 13.1394V11.6082Z" fill="white"/>
<path fill-rule="evenodd" clip-rule="evenodd" d="M10.0549 11.7979C10.0549 11.246 9.44449 10.9681 9.10581 11.3966C8.0846 12.6918 7.52734 14.3082 7.52734 15.9752C7.52734 17.6422 8.0846 19.2586 9.10581 20.5538C9.44449 20.9823 10.0549 20.7044 10.0549 20.1525V18.6914C10.0539 18.5824 10.0279 18.4752 9.97904 18.3785C9.61362 17.6332 9.42327 16.8104 9.42327 15.9759C9.42327 15.1414 9.61362 14.3185 9.97904 13.5733C10.0277 13.4769 10.0537 13.3701 10.0549 13.2616V11.7979Z" fill="white"/>
<path fill-rule="evenodd" clip-rule="evenodd" d="M12.5816 11.9795C12.5816 11.4419 11.9939 11.1574 11.6489 11.5626C10.6212 12.7699 10.0547 14.3196 10.0547 15.9237C10.0547 17.5278 10.6212 19.0774 11.6489 20.2847C11.9939 20.6899 12.5816 20.4042 12.5816 19.8679V18.4808C12.5803 18.3641 12.5513 18.2495 12.4969 18.1471C12.1376 17.4641 11.9495 16.7 11.9495 15.9237C11.9495 15.1473 12.1376 14.3832 12.4969 13.7003C12.5511 13.5982 12.5802 13.4841 12.5816 13.3678V11.9795Z" fill="white"/>
<path fill-rule="evenodd" clip-rule="evenodd" d="M25.4727 11.6082C25.4727 11.0446 26.1045 10.7731 26.4356 11.2186C27.4511 12.5956 28.0007 14.2759 28.0007 16.0037C28.0007 17.7314 27.4511 19.4117 26.4356 20.7887C26.1033 21.2381 25.4727 20.9667 25.4727 20.3991V18.8757C25.4732 18.7732 25.4961 18.672 25.5396 18.5797C25.9115 17.7761 26.1045 16.8974 26.1045 16.0076C26.1045 15.1177 25.9115 14.2391 25.5396 13.4355C25.4961 13.3432 25.4732 13.242 25.4727 13.1394V11.6082Z" fill="white"/>
<path fill-rule="evenodd" clip-rule="evenodd" d="M22.9453 11.7979C22.9453 11.246 23.557 10.9681 23.8944 11.3966C24.9156 12.6918 25.4728 14.3082 25.4728 15.9752C25.4728 17.6422 24.9156 19.2586 23.8944 20.5538C23.557 20.9823 22.9453 20.7044 22.9453 20.1525V18.6914C22.9463 18.5824 22.9723 18.4752 23.0211 18.3785C23.3866 17.6332 23.5769 16.8104 23.5769 15.9759C23.5769 15.1414 23.3866 14.3185 23.0211 13.5733C22.9725 13.4769 22.9465 13.3701 22.9453 13.2616V11.7979Z" fill="white"/>
<path fill-rule="evenodd" clip-rule="evenodd" d="M20.417 11.9795C20.417 11.4419 21.0046 11.1574 21.3496 11.5626C22.3774 12.7699 22.9439 14.3196 22.9439 15.9237C22.9439 17.5278 22.3774 19.0774 21.3496 20.2847C21.0046 20.6899 20.417 20.4055 20.417 19.8679V18.4808C20.4181 18.3639 20.4476 18.2492 20.503 18.1471C20.8613 17.4638 21.0489 16.6998 21.0489 15.9237C21.0489 15.1475 20.8613 14.3835 20.503 13.7003C20.4478 13.5986 20.4182 13.4843 20.417 13.3678V11.9795Z" fill="white"/>
<path fill-rule="evenodd" clip-rule="evenodd" d="M16.5006 11.7773C14.3358 11.7773 12.583 13.6306 12.583 15.9163C12.583 18.202 14.337 20.0552 16.5006 20.0552C18.6641 20.0552 20.4182 18.202 20.4182 15.9163C20.4182 13.6306 18.6641 11.7773 16.5006 11.7773ZM16.517 18.102C15.3658 18.102 14.514 17.1345 14.4635 15.9929C14.4129 14.8514 15.4428 13.8825 16.517 13.8825C17.667 13.8825 18.5188 14.8501 18.5693 15.9929C18.6199 17.1358 17.59 18.102 16.517 18.102Z" fill="white"/>
</svg>
